<svg class="rich-terminal" viewBox="0 0 994 1026.0" xmlns="http://www.w3.org/2000/svg">
    <!-- Generated with Rich https://www.textualize.io -->
    <style>

    @font-face {
        font-family: "Fira Code";
        src: local("FiraCode-Regular"),
                url("https://cdnjs.cloudflare.com/ajax/libs/firacode/6.2.0/woff2/FiraCode-Regular.woff2") format("woff2"),
                url("https://cdnjs.cloudflare.com/ajax/libs/firacode/6.2.0/woff/FiraCode-Regular.woff") format("woff");
        font-style: normal;
        font-weight: 400;
    }
    @font-face {
        font-family: "Fira Code";
        src: local("FiraCode-Bold"),
                url("https://cdnjs.cloudflare.com/ajax/libs/firacode/6.2.0/woff2/FiraCode-Bold.woff2") format("woff2"),
                url("https://cdnjs.cloudflare.com/ajax/libs/firacode/6.2.0/woff/FiraCode-Bold.woff") format("woff");
        font-style: bold;
        font-weight: 700;
    }

    .terminal-1016457320-matrix {
        font-family: Fira Code, monospace;
        font-size: 20px;
        line-height: 24.4px;
        font-variant-east-asian: full-width;
    }

    .terminal-1016457320-title {
        font-size: 18px;
        font-weight: bold;
        font-family: arial;
    }

    .terminal-1016457320-r1 { fill: #e0e0e0;font-weight: bold }
.terminal-1016457320-r2 { fill: #e0e0e0 }
.terminal-1016457320-r3 { fill: #c5c8c6 }
.terminal-1016457320-r4 { fill: #eaeaea;font-weight: bold }
.terminal-1016457320-r5 { fill: #2d2d2d }
.terminal-1016457320-r6 { fill: #0d0d0d }
.terminal-1016457320-r7 { fill: #b0b0b0;font-weight: bold }
.terminal-1016457320-r8 { fill: #515151 }
    </style>

    <defs>
    <clipPath id="terminal-1016457320-clip-terminal">
      <rect x="0" y="0" width="975.0" height="975.0" />
    </clipPath>
    <clipPath id="terminal-1016457320-line-0">
    <rect x="0" y="1.5" width="976" height="24.65"/>
            </clipPath>
<clipPath id="terminal-1016457320-line-1">
    <rect x="0" y="25.9" width="976" height="24.65"/>
            </clipPath>
<clipPath id="terminal-1016457320-line-2">
    <rect x="0" y="50.3" width="976" height="24.65"/>
            </clipPath>
<clipPath id="terminal-1016457320-line-3">
    <rect x="0" y="74.7" width="976" height="24.65"/>
            </clipPath>
<clipPath id="terminal-1016457320-line-4">
    <rect x="0" y="99.1" width="976" height="24.65"/>
            </clipPath>
<clipPath id="terminal-1016457320-line-5">
    <rect x="0" y="123.5" width="976" height="24.65"/>
            </clipPath>
<clipPath id="terminal-1016457320-line-6">
    <rect x="0" y="147.9" width="976" height="24.65"/>
            </clipPath>
<clipPath id="terminal-1016457320-line-7">
    <rect x="0" y="172.3" width="976" height="24.65"/>
            </clipPath>
<clipPath id="terminal-1016457320-line-8">
    <rect x="0" y="196.7" width="976" height="24.65"/>
            </clipPath>
<clipPath id="terminal-1016457320-line-9">
    <rect x="0" y="221.1" width="976" height="24.65"/>
            </clipPath>
<clipPath id="terminal-1016457320-line-10">
    <rect x="0" y="245.5" width="976" height="24.65"/>
            </clipPath>
<clipPath id="terminal-1016457320-line-11">
    <rect x="0" y="269.9" width="976" height="24.65"/>
            </clipPath>
<clipPath id="terminal-1016457320-line-12">
    <rect x="0" y="294.3" width="976" height="24.65"/>
            </clipPath>
<clipPath id="terminal-1016457320-line-13">
    <rect x="0" y="318.7" width="976" height="24.65"/>
            </clipPath>
<clipPath id="terminal-1016457320-line-14">
    <rect x="0" y="343.1" width="976" height="24.65"/>
            </clipPath>
<clipPath id="terminal-1016457320-line-15">
    <rect x="0" y="367.5" width="976" height="24.65"/>
            </clipPath>
<clipPath id="terminal-1016457320-line-16">
    <rect x="0" y="391.9" width="976" height="24.65"/>
            </clipPath>
<clipPath id="terminal-1016457320-line-17">
    <rect x="0" y="416.3" width="976" height="24.65"/>
            </clipPath>
<clipPath id="terminal-1016457320-line-18">
    <rect x="0" y="440.7" width="976" height="24.65"/>
            </clipPath>
<clipPath id="terminal-1016457320-line-19">
    <rect x="0" y="465.1" width="976" height="24.65"/>
            </clipPath>
<clipPath id="terminal-1016457320-line-20">
    <rect x="0" y="489.5" width="976" height="24.65"/>
            </clipPath>
<clipPath id="terminal-1016457320-line-21">
    <rect x="0" y="513.9" width="976" height="24.65"/>
            </clipPath>
<clipPath id="terminal-1016457320-line-22">
    <rect x="0" y="538.3" width="976" height="24.65"/>
            </clipPath>
<clipPath id="terminal-1016457320-line-23">
    <rect x="0" y="562.7" width="976" height="24.65"/>
            </clipPath>
<clipPath id="terminal-1016457320-line-24">
    <rect x="0" y="587.1" width="976" height="24.65"/>
            </clipPath>
<clipPath id="terminal-1016457320-line-25">
    <rect x="0" y="611.5" width="976" height="24.65"/>
            </clipPath>
<clipPath id="terminal-1016457320-line-26">
    <rect x="0" y="635.9" width="976" height="24.65"/>
            </clipPath>
<clipPath id="terminal-1016457320-line-27">
    <rect x="0" y="660.3" width="976" height="24.65"/>
            </clipPath>
<clipPath id="terminal-1016457320-line-28">
    <rect x="0" y="684.7" width="976" height="24.65"/>
            </clipPath>
<clipPath id="terminal-1016457320-line-29">
    <rect x="0" y="709.1" width="976" height="24.65"/>
            </clipPath>
<clipPath id="terminal-1016457320-line-30">
    <rect x="0" y="733.5" width="976" height="24.65"/>
            </clipPath>
<clipPath id="terminal-1016457320-line-31">
    <rect x="0" y="757.9" width="976" height="24.65"/>
            </clipPath>
<clipPath id="terminal-1016457320-line-32">
    <rect x="0" y="782.3" width="976" height="24.65"/>
            </clipPath>
<clipPath id="terminal-1016457320-line-33">
    <rect x="0" y="806.7" width="976" height="24.65"/>
            </clipPath>
<clipPath id="terminal-1016457320-line-34">
    <rect x="0" y="831.1" width="976" height="24.65"/>
            </clipPath>
<clipPath id="terminal-1016457320-line-35">
    <rect x="0" y="855.5" width="976" height="24.65"/>
            </clipPath>
<clipPath id="terminal-1016457320-line-36">
    <rect x="0" y="879.9" width="976" height="24.65"/>
            </clipPath>
<clipPath id="terminal-1016457320-line-37">
    <rect x="0" y="904.3" width="976" height="24.65"/>
            </clipPath>
<clipPath id="terminal-1016457320-line-38">
    <rect x="0" y="928.7" width="976" height="24.65"/>
            </clipPath>
    </defs>

    <rect fill="#292929" stroke="rgba(255,255,255,0.35)" stroke-width="1" x="1" y="1" width="992" height="1024" rx="8"/><text class="terminal-1016457320-title" fill="#c5c8c6" text-anchor="middle" x="496" y="27">TestWrestleGMApp</text>
            <g transform="translate(26,22)">
            <circle cx="0" cy="0" r="7" fill="#ff5f57"/>
            <circle cx="22" cy="0" r="7" fill="#febc2e"/>
            <circle cx="44" cy="0" r="7" fill="#28c840"/>
            </g>
        
    <g transform="translate(9, 41)" clip-path="url(#terminal-1016457320-clip-terminal)">
    <rect fill="#363636" x="0" y="1.5" width="183" height="24.65" shape-rendering="crispEdges"/><rect fill="#363636" x="183" y="1.5" width="61" height="24.65" shape-rendering="crispEdges"/><rect fill="#363636" x="244" y="1.5" width="61" height="24.65" shape-rendering="crispEdges"/><rect fill="#363636" x="305" y="1.5" width="61" height="24.65" shape-rendering="crispEdges"/><rect fill="#363636" x="366" y="1.5" width="85.4" height="24.65" shape-rendering="crispEdges"/><rect fill="#323232" x="451.4" y="1.5" width="524.6" height="24.65" shape-rendering="crispEdges"/><rect fill="#656565" x="0" y="25.9" width="183" height="24.65" shape-rendering="crispEdges"/><rect fill="#656565" x="183" y="25.9" width="61" height="24.65" shape-rendering="crispEdges"/><rect fill="#656565" x="244" y="25.9" width="61" height="24.65" shape-rendering="crispEdges"/><rect fill="#656565" x="305" y="25.9" width="61" height="24.65" shape-rendering="crispEdges"/><rect fill="#656565" x="366" y="25.9" width="85.4" height="24.65" shape-rendering="crispEdges"/><rect fill="#272727" x="451.4" y="25.9" width="524.6" height="24.65" shape-rendering="crispEdges"/><rect fill="#272727" x="0" y="50.3" width="183" height="24.65" shape-rendering="crispEdges"/><rect fill="#272727" x="183" y="50.3" width="61" height="24.65" shape-rendering="crispEdges"/><rect fill="#272727" x="244" y="50.3" width="61" height="24.65" shape-rendering="crispEdges"/><rect fill="#272727" x="305" y="50.3" width="61" height="24.65" shape-rendering="crispEdges"/><rect fill="#272727" x="366" y="50.3" width="85.4" height="24.65" shape-rendering="crispEdges"/><rect fill="#272727" x="451.4" y="50.3" width="524.6" height="24.65" shape-rendering="crispEdges"/><rect fill="#272727" x="0" y="74.7" width="183" height="24.65" shape-rendering="crispEdges"/><rect fill="#272727" x="183" y="74.7" width="61" height="24.65" shape-rendering="crispEdges"/><rect fill="#272727" x="244" y="74.7" width="61" height="24.65" shape-rendering="crispEdges"/><rect fill="#272727" x="305" y="74.7" width="61" height="24.65" shape-rendering="crispEdges"/><rect fill="#272727" x="366" y="74.7" width="85.4" height="24.65" shape-rendering="crispEdges"/><rect fill="#272727" x="451.4" y="74.7" width="524.6" height="24.65" shape-rendering="crispEdges"/><rect fill="#272727" x="0" y="99.1" width="183" height="24.65" shape-rendering="crispEdges"/><rect fill="#272727" x="183" y="99.1" width="61" height="24.65" shape-rendering="crispEdges"/><rect fill="#272727" x="244" y="99.1" width="61" height="24.65" shape-rendering="crispEdges"/><rect fill="#272727" x="305" y="99.1" width="61" height="24.65" shape-rendering="crispEdges"/><rect fill="#272727" x="366" y="99.1" width="85.4" height="24.65" shape-rendering="crispEdges"/><rect fill="#272727" x="451.4" y="99.1" width="524.6" height="24.65" shape-rendering="crispEdges"/><rect fill="#272727" x="0" y="123.5" width="183" height="24.65" shape-rendering="crispEdges"/><rect fill="#272727" x="183" y="123.5" width="61" height="24.65" shape-rendering="crispEdges"/><rect fill="#272727" x="244" y="123.5" width="61" height="24.65" shape-rendering="crispEdges"/><rect fill="#272727" x="305" y="123.5" width="61" height="24.65" shape-rendering="crispEdges"/><rect fill="#272727" x="366" y="123.5" width="85.4" height="24.65" shape-rendering="crispEdges"/><rect fill="#272727" x="451.4" y="123.5" width="524.6" height="24.65" shape-rendering="crispEdges"/><rect fill="#272727" x="0" y="147.9" width="183" height="24.65" shape-rendering="crispEdges"/><rect fill="#272727" x="183" y="147.9" width="61" height="24.65" shape-rendering="crispEdges"/><rect fill="#272727" x="244" y="147.9" width="61" height="24.65" shape-rendering="crispEdges"/><rect fill="#272727" x="305" y="147.9" width="61" height="24.65" shape-rendering="crispEdges"/><rect fill="#272727" x="366" y="147.9" width="85.4" height="24.65" shape-rendering="crispEdges"/><rect fill="#272727" x="451.4" y="147.9" width="524.6" height="24.65" shape-rendering="crispEdges"/><rect fill="#272727" x="0" y="172.3" width="183" height="24.65" shape-rendering="crispEdges"/><rect fill="#272727" x="183" y="172.3" width="61" height="24.65" shape-rendering="crispEdges"/><rect fill="#272727" x="244" y="172.3" width="61" height="24.65" shape-rendering="crispEdges"/><rect fill="#272727" x="305" y="172.3" width="61" height="24.65" shape-rendering="crispEdges"/><rect fill="#272727" x="366" y="172.3" width="85.4" height="24.65" shape-rendering="crispEdges"/><rect fill="#272727" x="451.4" y="172.3" width="524.6" height="24.65" shape-rendering="crispEdges"/><rect fill="#272727" x="0" y="196.7" width="183" height="24.65" shape-rendering="crispEdges"/><rect fill="#272727" x="183" y="196.7" width="61" height="24.65" shape-rendering="crispEdges"/><rect fill="#272727" x="244" y="196.7" width="61" height="24.65" shape-rendering="crispEdges"/><rect fill="#272727" x="305" y="196.7" width="61" height="24.65" shape-rendering="crispEdges"/><rect fill="#272727" x="366" y="196.7" width="85.4" height="24.65" shape-rendering="crispEdges"/><rect fill="#272727" x="451.4" y="196.7" width="524.6" height="24.65" shape-rendering="crispEdges"/><rect fill="#272727" x="0" y="221.1" width="183" height="24.65" shape-rendering="crispEdges"/><rect fill="#272727" x="183" y="221.1" width="61" height="24.65" shape-rendering="crispEdges"/><rect fill="#272727" x="244" y="221.1" width="61" height="24.65" shape-rendering="crispEdges"/><rect fill="#272727" x="305" y="221.1" width="61" height="24.65" shape-rendering="crispEdges"/><rect fill="#272727" x="366" y="221.1" width="85.4" height="24.65" shape-rendering="crispEdges"/><rect fill="#272727" x="451.4" y="221.1" width="524.6" height="24.65" shape-rendering="crispEdges"/><rect fill="#272727" x="0" y="245.5" width="183" height="24.65" shape-rendering="crispEdges"/><rect fill="#272727" x="183" y="245.5" width="61" height="24.65" shape-rendering="crispEdges"/><rect fill="#272727" x="244" y="245.5" width="61" height="24.65" shape-rendering="crispEdges"/><rect fill="#272727" x="305" y="245.5" width="61" height="24.65" shape-rendering="crispEdges"/><rect fill="#272727" x="366" y="245.5" width="85.4" height="24.65" shape-rendering="crispEdges"/><rect fill="#272727" x="451.4" y="245.5" width="524.6" height="24.65" shape-rendering="crispEdges"/><rect fill="#121212" x="0" y="269.9" width="0" height="24.65" shape-rendering="crispEdges"/><rect fill="#121212" x="0" y="269.9" width="976" height="24.65" shape-rendering="crispEdges"/><rect fill="#121212" x="0" y="294.3" width="976" height="24.65" shape-rendering="crispEdges"/><rect fill="#121212" x="0" y="318.7" width="976" height="24.65" shape-rendering="crispEdges"/><rect fill="#121212" x="0" y="343.1" width="976" height="24.65" shape-rendering="crispEdges"/><rect fill="#121212" x="0" y="367.5" width="976" height="24.65" shape-rendering="crispEdges"/><rect fill="#121212" x="0" y="391.9" width="976" height="24.65" shape-rendering="crispEdges"/><rect fill="#121212" x="0" y="416.3" width="976" height="24.65" shape-rendering="crispEdges"/><rect fill="#121212" x="0" y="440.7" width="976" height="24.65" shape-rendering="crispEdges"/><rect fill="#121212" x="0" y="465.1" width="976" height="24.65" shape-rendering="crispEdges"/><rect fill="#121212" x="0" y="489.5" width="976" height="24.65" shape-rendering="crispEdges"/><rect fill="#121212" x="0" y="513.9" width="976" height="24.65" shape-rendering="crispEdges"/><rect fill="#121212" x="0" y="538.3" width="976" height="24.65" shape-rendering="crispEdges"/><rect fill="#121212" x="0" y="562.7" width="976" height="24.65" shape-rendering="crispEdges"/><rect fill="#121212" x="0" y="587.1" width="976" height="24.65" shape-rendering="crispEdges"/><rect fill="#121212" x="0" y="611.5" width="976" height="24.65" shape-rendering="crispEdges"/><rect fill="#121212" x="0" y="635.9" width="976" height="24.65" shape-rendering="crispEdges"/><rect fill="#121212" x="0" y="660.3" width="976" height="24.65" shape-rendering="crispEdges"/><rect fill="#121212" x="0" y="684.7" width="976" height="24.65" shape-rendering="crispEdges"/><rect fill="#121212" x="0" y="709.1" width="976" height="24.65" shape-rendering="crispEdges"/><rect fill="#121212" x="0" y="733.5" width="976" height="24.65" shape-rendering="crispEdges"/><rect fill="#121212" x="0" y="757.9" width="976" height="24.65" shape-rendering="crispEdges"/><rect fill="#121212" x="0" y="782.3" width="976" height="24.65" shape-rendering="crispEdges"/><rect fill="#121212" x="0" y="806.7" width="976" height="24.65" shape-rendering="crispEdges"/><rect fill="#121212" x="0" y="831.1" width="976" height="24.65" shape-rendering="crispEdges"/><rect fill="#121212" x="0" y="855.5" width="268.4" height="24.65" shape-rendering="crispEdges"/><rect fill="#1e1e1e" x="268.4" y="855.5" width="439.2" height="24.65" shape-rendering="crispEdges"/><rect fill="#121212" x="707.6" y="855.5" width="268.4" height="24.65" shape-rendering="crispEdges"/><rect fill="#121212" x="0" y="879.9" width="268.4" height="24.65" shape-rendering="crispEdges"/><rect fill="#1e1e1e" x="268.4" y="879.9" width="61" height="24.65" shape-rendering="crispEdges"/><rect fill="#1e1e1e" x="329.4" y="879.9" width="97.6" height="24.65" shape-rendering="crispEdges"/><rect fill="#1e1e1e" x="427" y="879.9" width="122" height="24.65" shape-rendering="crispEdges"/><rect fill="#1e1e1e" x="549" y="879.9" width="97.6" height="24.65" shape-rendering="crispEdges"/><rect fill="#1e1e1e" x="646.6" y="879.9" width="61" height="24.65" shape-rendering="crispEdges"/><rect fill="#121212" x="707.6" y="879.9" width="268.4" height="24.65" shape-rendering="crispEdges"/><rect fill="#121212" x="0" y="904.3" width="268.4" height="24.65" shape-rendering="crispEdges"/><rect fill="#1e1e1e" x="268.4" y="904.3" width="439.2" height="24.65" shape-rendering="crispEdges"/><rect fill="#121212" x="707.6" y="904.3" width="268.4" height="24.65" shape-rendering="crispEdges"/><rect fill="#121212" x="0" y="928.7" width="976" height="24.65" shape-rendering="crispEdges"/><rect fill="#2d2d2d" x="0" y="953.1" width="36.6" height="24.65" shape-rendering="crispEdges"/><rect fill="#2d2d2d" x="36.6" y="953.1" width="97.6" height="24.65" shape-rendering="crispEdges"/><rect fill="#2d2d2d" x="134.2" y="953.1" width="61" height="24.65" shape-rendering="crispEdges"/><rect fill="#2d2d2d" x="195.2" y="953.1" width="85.4" height="24.65" shape-rendering="crispEdges"/><rect fill="#2d2d2d" x="280.6" y="953.1" width="549" height="24.65" shape-rendering="crispEdges"/><rect fill="#2d2d2d" x="829.6" y="953.1" width="12.2" height="24.65" shape-rendering="crispEdges"/><rect fill="#2d2d2d" x="841.8" y="953.1" width="24.4" height="24.65" shape-rendering="crispEdges"/><rect fill="#2d2d2d" x="866.2" y="953.1" width="97.6" height="24.65" shape-rendering="crispEdges"/><rect fill="#2d2d2d" x="963.8" y="953.1" width="12.2" height="24.65" shape-rendering="crispEdges"/>
    <g class="terminal-1016457320-matrix">
    <text class="terminal-1016457320-r1" x="0" y="20" textLength="183" clip-path="url(#terminal-1016457320-line-0)">&#160;Name&#160;&#160;&#160;&#160;&#160;&#160;&#160;&#160;&#160;&#160;</text><text class="terminal-1016457320-r1" x="183" y="20" textLength="48.8" clip-path="url(#terminal-1016457320-line-0)">&#160;⭐&#160;&#160;</text><text class="terminal-1016457320-r1" x="244" y="20" textLength="48.8" clip-path="url(#terminal-1016457320-line-0)">&#160;🔋&#160;&#160;</text><text class="terminal-1016457320-r1" x="305" y="20" textLength="48.8" clip-path="url(#terminal-1016457320-line-0)">&#160;🎤&#160;&#160;</text><text class="terminal-1016457320-r1" x="366" y="20" textLength="85.4" clip-path="url(#terminal-1016457320-line-0)">&#160;Align&#160;</text><text class="terminal-1016457320-r3" x="976" y="20" textLength="12.2" clip-path="url(#terminal-1016457320-line-0)">
</text><text class="terminal-1016457320-r4" x="0" y="44.4" textLength="183" clip-path="url(#terminal-1016457320-line-1)">&#160;Brutus&#160;Hale&#160;&#160;&#160;</text><text class="terminal-1016457320-r4" x="183" y="44.4" textLength="61" clip-path="url(#terminal-1016457320-line-1)">&#160;&#160;82&#160;</text><text class="terminal-1016457320-r4" x="244" y="44.4" textLength="61" clip-path="url(#terminal-1016457320-line-1)">&#160;&#160;45&#160;</text><text class="terminal-1016457320-r4" x="305" y="44.4" textLength="61" clip-path="url(#terminal-1016457320-line-1)">&#160;&#160;60&#160;</text><text class="terminal-1016457320-r4" x="366" y="44.4" textLength="73.2" clip-path="url(#terminal-1016457320-line-1)">&#160;😈&#160;&#160;&#160;&#160;</text><text class="terminal-1016457320-r3" x="976" y="44.4" textLength="12.2" clip-path="url(#terminal-1016457320-line-1)">
</text><text class="terminal-1016457320-r2" x="0" y="68.8" textLength="183" clip-path="url(#terminal-1016457320-line-2)">&#160;Evan&#160;Bright&#160;&#160;&#160;</text><text class="terminal-1016457320-r2" x="183" y="68.8" textLength="61" clip-path="url(#terminal-1016457320-line-2)">&#160;&#160;86&#160;</text><text class="terminal-1016457320-r2" x="244" y="68.8" textLength="61" clip-path="url(#terminal-1016457320-line-2)">&#160;&#160;58&#160;</text><text class="terminal-1016457320-r2" x="305" y="68.8" textLength="61" clip-path="url(#terminal-1016457320-line-2)">&#160;&#160;84&#160;</text><text class="terminal-1016457320-r2" x="366" y="68.8" textLength="73.2" clip-path="url(#terminal-1016457320-line-2)">&#160;😃&#160;&#160;&#160;&#160;</text><text class="terminal-1016457320-r3" x="976" y="68.8" textLength="12.2" clip-path="url(#terminal-1016457320-line-2)">
</text><text class="terminal-1016457320-r2" x="0" y="93.2" textLength="183" clip-path="url(#terminal-1016457320-line-3)">&#160;Silas&#160;Ward&#160;&#160;&#160;&#160;</text><text class="terminal-1016457320-r2" x="183" y="93.2" textLength="61" clip-path="url(#terminal-1016457320-line-3)">&#160;&#160;78&#160;</text><text class="terminal-1016457320-r2" x="244" y="93.2" textLength="61" clip-path="url(#terminal-1016457320-line-3)">&#160;&#160;62&#160;</text><text class="terminal-1016457320-r2" x="305" y="93.2" textLength="61" clip-path="url(#terminal-1016457320-line-3)">&#160;&#160;70&#160;</text><text class="terminal-1016457320-r2" x="366" y="93.2" textLength="73.2" clip-path="url(#terminal-1016457320-line-3)">&#160;😃&#160;&#160;&#160;&#160;</text><text class="terminal-1016457320-r3" x="976" y="93.2" textLength="12.2" clip-path="url(#terminal-1016457320-line-3)">
</text><text class="terminal-1016457320-r2" x="0" y="117.6" textLength="183" clip-path="url(#terminal-1016457320-line-4)">&#160;Rex&#160;Slaughter&#160;</text><text class="terminal-1016457320-r2" x="183" y="117.6" textLength="61" clip-path="url(#terminal-1016457320-line-4)">&#160;&#160;74&#160;</text><text class="terminal-1016457320-r2" x="244" y="117.6" textLength="61" clip-path="url(#terminal-1016457320-line-4)">&#160;&#160;68&#160;</text><text class="terminal-1016457320-r2" x="305" y="117.6" textLength="61" clip-path="url(#terminal-1016457320-line-4)">&#160;&#160;62&#160;</text><text class="terminal-1016457320-r2" x="366" y="117.6" textLength="73.2" clip-path="url(#terminal-1016457320-line-4)">&#160;😈&#160;&#160;&#160;&#160;</text><text class="terminal-1016457320-r3" x="976" y="117.6" textLength="12.2" clip-path="url(#terminal-1016457320-line-4)">
</text><text class="terminal-1016457320-r2" x="0" y="142" textLength="183" clip-path="url(#terminal-1016457320-line-5)">&#160;Kai&#160;Jetstream&#160;</text><text class="terminal-1016457320-r2" x="183" y="142" textLength="61" clip-path="url(#terminal-1016457320-line-5)">&#160;&#160;80&#160;</text><text class="terminal-1016457320-r2" x="244" y="142" textLength="61" clip-path="url(#terminal-1016457320-line-5)">&#160;&#160;72&#160;</text><text class="terminal-1016457320-r2" x="305" y="142" textLength="61" clip-path="url(#terminal-1016457320-line-5)">&#160;&#160;66&#160;</text><text class="terminal-1016457320-r2" x="366" y="142" textLength="73.2" clip-path="url(#terminal-1016457320-line-5)">&#160;😃&#160;&#160;&#160;&#160;</text><text class="terminal-1016457320-r3" x="976" y="142" textLength="12.2" clip-path="url(#terminal-1016457320-line-5)">
</text><text class="terminal-1016457320-r2" x="0" y="166.4" textLength="183" clip-path="url(#terminal-1016457320-line-6)">&#160;El&#160;Niebla&#160;&#160;&#160;&#160;&#160;</text><text class="terminal-1016457320-r2" x="183" y="166.4" textLength="61" clip-path="url(#terminal-1016457320-line-6)">&#160;&#160;76&#160;</text><text class="terminal-1016457320-r2" x="244" y="166.4" textLength="61" clip-path="url(#terminal-1016457320-line-6)">&#160;&#160;55&#160;</text><text class="terminal-1016457320-r2" x="305" y="166.4" textLength="61" clip-path="url(#terminal-1016457320-line-6)">&#160;&#160;60&#160;</text><text class="terminal-1016457320-r2" x="366" y="166.4" textLength="73.2" clip-path="url(#terminal-1016457320-line-6)">&#160;😃&#160;&#160;&#160;&#160;</text><text class="terminal-1016457320-r3" x="976" y="166.4" textLength="12.2" clip-path="url(#terminal-1016457320-line-6)">
</text><text class="terminal-1016457320-r2" x="0" y="190.8" textLength="183" clip-path="url(#terminal-1016457320-line-7)">&#160;Magnus&#160;Crown&#160;&#160;</text><text class="terminal-1016457320-r2" x="183" y="190.8" textLength="61" clip-path="url(#terminal-1016457320-line-7)">&#160;&#160;90&#160;</text><text class="terminal-1016457320-r2" x="244" y="190.8" textLength="61" clip-path="url(#terminal-1016457320-line-7)">&#160;&#160;70&#160;</text><text class="terminal-1016457320-r2" x="305" y="190.8" textLength="61" clip-path="url(#terminal-1016457320-line-7)">&#160;&#160;78&#160;</text><text class="terminal-1016457320-r2" x="366" y="190.8" textLength="73.2" clip-path="url(#terminal-1016457320-line-7)">&#160;😃&#160;&#160;&#160;&#160;</text><text class="terminal-1016457320-r3" x="976" y="190.8" textLength="12.2" clip-path="url(#terminal-1016457320-line-7)">
</text><text class="terminal-1016457320-r2" x="0" y="215.2" textLength="183" clip-path="url(#terminal-1016457320-line-8)">&#160;Vance&#160;Cruel&#160;&#160;&#160;</text><text class="terminal-1016457320-r2" x="183" y="215.2" textLength="61" clip-path="url(#terminal-1016457320-line-8)">&#160;&#160;79&#160;</text><text class="terminal-1016457320-r2" x="244" y="215.2" textLength="61" clip-path="url(#terminal-1016457320-line-8)">&#160;&#160;50&#160;</text><text class="terminal-1016457320-r2" x="305" y="215.2" textLength="61" clip-path="url(#terminal-1016457320-line-8)">&#160;&#160;74&#160;</text><text class="terminal-1016457320-r2" x="366" y="215.2" textLength="73.2" clip-path="url(#terminal-1016457320-line-8)">&#160;😈&#160;&#160;&#160;&#160;</text><text class="terminal-1016457320-r3" x="976" y="215.2" textLength="12.2" clip-path="url(#terminal-1016457320-line-8)">
</text><text class="terminal-1016457320-r2" x="0" y="239.6" textLength="183" clip-path="url(#terminal-1016457320-line-9)">&#160;Kade&#160;Iron&#160;&#160;&#160;&#160;&#160;</text><text class="terminal-1016457320-r2" x="183" y="239.6" textLength="61" clip-path="url(#terminal-1016457320-line-9)">&#160;&#160;77&#160;</text><text class="terminal-1016457320-r2" x="244" y="239.6" textLength="61" clip-path="url(#terminal-1016457320-line-9)">&#160;&#160;65&#160;</text><text class="terminal-1016457320-r2" x="305" y="239.6" textLength="61" clip-path="url(#terminal-1016457320-line-9)">&#160;&#160;58&#160;</text><text class="terminal-1016457320-r2" x="366" y="239.6" textLength="73.2" clip-path="url(#terminal-1016457320-line-9)">&#160;😈&#160;&#160;&#160;&#160;</text><text class="terminal-1016457320-r3" x="976" y="239.6" textLength="12.2" clip-path="url(#terminal-1016457320-line-9)">
</text><text class="terminal-1016457320-r2" x="0" y="264" textLength="183" clip-path="url(#terminal-1016457320-line-10)">&#160;Luca&#160;Flair&#160;&#160;&#160;&#160;</text><text class="terminal-1016457320-r2" x="183" y="264" textLength="61" clip-path="url(#terminal-1016457320-line-10)">&#160;&#160;83&#160;</text><text class="terminal-1016457320-r2" x="244" y="264" textLength="61" clip-path="url(#terminal-1016457320-line-10)">&#160;&#160;48&#160;</text><text class="terminal-1016457320-r2" x="305" y="264" textLength="61" clip-path="url(#terminal-1016457320-line-10)">&#160;&#160;88&#160;</text><text class="terminal-1016457320-r2" x="366" y="264" textLength="73.2" clip-path="url(#terminal-1016457320-line-10)">&#160;😃&#160;&#160;&#160;&#160;</text><text class="terminal-1016457320-r3" x="976" y="264" textLength="12.2" clip-path="url(#terminal-1016457320-line-10)">
</text><text class="terminal-1016457320-r3" x="976" y="288.4" textLength="12.2" clip-path="url(#terminal-1016457320-line-11)">
</text><text class="terminal-1016457320-r3" x="976" y="312.8" textLength="12.2" clip-path="url(#terminal-1016457320-line-12)">
</text><text class="terminal-1016457320-r3" x="976" y="337.2" textLength="12.2" clip-path="url(#terminal-1016457320-line-13)">
</text><text class="terminal-1016457320-r3" x="976" y="361.6" textLength="12.2" clip-path="url(#terminal-1016457320-line-14)">
</text><text class="terminal-1016457320-r3" x="976" y="386" textLength="12.2" clip-path="url(#terminal-1016457320-line-15)">
</text><text class="terminal-1016457320-r3" x="976" y="410.4" textLength="12.2" clip-path="url(#terminal-1016457320-line-16)">
</text><text class="terminal-1016457320-r3" x="976" y="434.8" textLength="12.2" clip-path="url(#terminal-1016457320-line-17)">
</text><text class="terminal-1016457320-r3" x="976" y="459.2" textLength="12.2" clip-path="url(#terminal-1016457320-line-18)">
</text><text class="terminal-1016457320-r3" x="976" y="483.6" textLength="12.2" clip-path="url(#terminal-1016457320-line-19)">
</text><text class="terminal-1016457320-r3" x="976" y="508" textLength="12.2" clip-path="url(#terminal-1016457320-line-20)">
</text><text class="terminal-1016457320-r3" x="976" y="532.4" textLength="12.2" clip-path="url(#terminal-1016457320-line-21)">
</text><text class="terminal-1016457320-r3" x="976" y="556.8" textLength="12.2" clip-path="url(#terminal-1016457320-line-22)">
</text><text class="terminal-1016457320-r3" x="976" y="581.2" textLength="12.2" clip-path="url(#terminal-1016457320-line-23)">
</text><text class="terminal-1016457320-r3" x="976" y="605.6" textLength="12.2" clip-path="url(#terminal-1016457320-line-24)">
</text><text class="terminal-1016457320-r3" x="976" y="630" textLength="12.2" clip-path="url(#terminal-1016457320-line-25)">
</text><text class="terminal-1016457320-r3" x="976" y="654.4" textLength="12.2" clip-path="url(#terminal-1016457320-line-26)">
</text><text class="terminal-1016457320-r3" x="976" y="678.8" textLength="12.2" clip-path="url(#terminal-1016457320-line-27)">
</text><text class="terminal-1016457320-r3" x="976" y="703.2" textLength="12.2" clip-path="url(#terminal-1016457320-line-28)">
</text><text class="terminal-1016457320-r3" x="976" y="727.6" textLength="12.2" clip-path="url(#terminal-1016457320-line-29)">
</text><text class="terminal-1016457320-r3" x="976" y="752" textLength="12.2" clip-path="url(#terminal-1016457320-line-30)">
</text><text class="terminal-1016457320-r3" x="976" y="776.4" textLength="12.2" clip-path="url(#terminal-1016457320-line-31)">
</text><text class="terminal-1016457320-r3" x="976" y="800.8" textLength="12.2" clip-path="url(#terminal-1016457320-line-32)">
</text><text class="terminal-1016457320-r3" x="976" y="825.2" textLength="12.2" clip-path="url(#terminal-1016457320-line-33)">
</text><text class="terminal-1016457320-r3" x="976" y="849.6" textLength="12.2" clip-path="url(#terminal-1016457320-line-34)">
</text><text class="terminal-1016457320-r5" x="268.4" y="874" textLength="439.2" clip-path="url(#terminal-1016457320-line-35)">▔▔▔▔▔▔▔▔▔▔▔▔▔▔▔▔▔▔▔▔▔▔▔▔▔▔▔▔▔▔▔▔▔▔▔▔</text><text class="terminal-1016457320-r3" x="976" y="874" textLength="12.2" clip-path="url(#terminal-1016457320-line-35)">
</text><text class="terminal-1016457320-r1" x="329.4" y="898.4" textLength="97.6" clip-path="url(#terminal-1016457320-line-36)">&#160;Select&#160;</text><text class="terminal-1016457320-r1" x="549" y="898.4" textLength="97.6" clip-path="url(#terminal-1016457320-line-36)">&#160;Cancel&#160;</text><text class="terminal-1016457320-r3" x="976" y="898.4" textLength="12.2" clip-path="url(#terminal-1016457320-line-36)">
</text><text class="terminal-1016457320-r6" x="268.4" y="922.8" textLength="439.2" clip-path="url(#terminal-1016457320-line-37)">▁▁▁▁▁▁▁▁▁▁▁▁▁▁▁▁▁▁▁▁▁▁▁▁▁▁▁▁▁▁▁▁▁▁▁▁</text><text class="terminal-1016457320-r3" x="976" y="922.8" textLength="12.2" clip-path="url(#terminal-1016457320-line-37)">
</text><text class="terminal-1016457320-r3" x="976" y="947.2" textLength="12.2" clip-path="url(#terminal-1016457320-line-38)">
</text><text class="terminal-1016457320-r7" x="0" y="971.6" textLength="36.6" clip-path="url(#terminal-1016457320-line-39)">&#160;i&#160;</text><text class="terminal-1016457320-r2" x="36.6" y="971.6" textLength="97.6" clip-path="url(#terminal-1016457320-line-39)">Inspect&#160;</text><text class="terminal-1016457320-r7" x="134.2" y="971.6" textLength="61" clip-path="url(#terminal-1016457320-line-39)">&#160;esc&#160;</text><text class="terminal-1016457320-r2" x="195.2" y="971.6" textLength="85.4" clip-path="url(#terminal-1016457320-line-39)">Cancel&#160;</text><text class="terminal-1016457320-r8" x="829.6" y="971.6" textLength="12.2" clip-path="url(#terminal-1016457320-line-39)">▏</text><text class="terminal-1016457320-r7" x="841.8" y="971.6" textLength="24.4" clip-path="url(#terminal-1016457320-line-39)">^p</text><text class="terminal-1016457320-r2" x="866.2" y="971.6" textLength="97.6" clip-path="url(#terminal-1016457320-line-39)">&#160;palette</text>
    </g>
    </g>
</svg>
