<svg class="rich-terminal" viewBox="0 0 994 1026.0" xmlns="http://www.w3.org/2000/svg">
    <!-- Generated with Rich https://www.textualize.io -->
    <style>

    @font-face {
        font-family: "Fira Code";
        src: local("FiraCode-Regular"),
                url("https://cdnjs.cloudflare.com/ajax/libs/firacode/6.2.0/woff2/FiraCode-Regular.woff2") format("woff2"),
                url("https://cdnjs.cloudflare.com/ajax/libs/firacode/6.2.0/woff/FiraCode-Regular.woff") format("woff");
        font-style: normal;
        font-weight: 400;
    }
    @font-face {
        font-family: "Fira Code";
        src: local("FiraCode-Bold"),
                url("https://cdnjs.cloudflare.com/ajax/libs/firacode/6.2.0/woff2/FiraCode-Bold.woff2") format("woff2"),
                url("https://cdnjs.cloudflare.com/ajax/libs/firacode/6.2.0/woff/FiraCode-Bold.woff") format("woff");
        font-style: bold;
        font-weight: 700;
    }

    .terminal-636844371-matrix {
        font-family: Fira Code, monospace;
        font-size: 20px;
        line-height: 24.4px;
        font-variant-east-asian: full-width;
    }

    .terminal-636844371-title {
        font-size: 18px;
        font-weight: bold;
        font-family: arial;
    }

    .terminal-636844371-r1 { fill: #4c4c4c }
.terminal-636844371-r2 { fill: #646464;font-weight: bold }
.terminal-636844371-r3 { fill: #c5c8c6 }
.terminal-636844371-r4 { fill: #e0e0e0 }
.terminal-636844371-r5 { fill: #1c1c1c }
.terminal-636844371-r6 { fill: #808080 }
.terminal-636844371-r7 { fill: #101010 }
.terminal-636844371-r8 { fill: #2d2d2d }
.terminal-636844371-r9 { fill: #272727;font-weight: bold }
.terminal-636844371-r10 { fill: #0d0d0d }
.terminal-636844371-r11 { fill: #e0e0e0;font-weight: bold }
.terminal-636844371-r12 { fill: #515151;font-weight: bold }
.terminal-636844371-r13 { fill: #646464 }
.terminal-636844371-r14 { fill: #2b2b2b }
    </style>

    <defs>
    <clipPath id="terminal-636844371-clip-terminal">
      <rect x="0" y="0" width="975.0" height="975.0" />
    </clipPath>
    <clipPath id="terminal-636844371-line-0">
    <rect x="0" y="1.5" width="976" height="24.65"/>
            </clipPath>
<clipPath id="terminal-636844371-line-1">
    <rect x="0" y="25.9" width="976" height="24.65"/>
            </clipPath>
<clipPath id="terminal-636844371-line-2">
    <rect x="0" y="50.3" width="976" height="24.65"/>
            </clipPath>
<clipPath id="terminal-636844371-line-3">
    <rect x="0" y="74.7" width="976" height="24.65"/>
            </clipPath>
<clipPath id="terminal-636844371-line-4">
    <rect x="0" y="99.1" width="976" height="24.65"/>
            </clipPath>
<clipPath id="terminal-636844371-line-5">
    <rect x="0" y="123.5" width="976" height="24.65"/>
            </clipPath>
<clipPath id="terminal-636844371-line-6">
    <rect x="0" y="147.9" width="976" height="24.65"/>
            </clipPath>
<clipPath id="terminal-636844371-line-7">
    <rect x="0" y="172.3" width="976" height="24.65"/>
            </clipPath>
<clipPath id="terminal-636844371-line-8">
    <rect x="0" y="196.7" width="976" height="24.65"/>
            </clipPath>
<clipPath id="terminal-636844371-line-9">
    <rect x="0" y="221.1" width="976" height="24.65"/>
            </clipPath>
<clipPath id="terminal-636844371-line-10">
    <rect x="0" y="245.5" width="976" height="24.65"/>
            </clipPath>
<clipPath id="terminal-636844371-line-11">
    <rect x="0" y="269.9" width="976" height="24.65"/>
            </clipPath>
<clipPath id="terminal-636844371-line-12">
    <rect x="0" y="294.3" width="976" height="24.65"/>
            </clipPath>
<clipPath id="terminal-636844371-line-13">
    <rect x="0" y="318.7" width="976" height="24.65"/>
            </clipPath>
<clipPath id="terminal-636844371-line-14">
    <rect x="0" y="343.1" width="976" height="24.65"/>
            </clipPath>
<clipPath id="terminal-636844371-line-15">
    <rect x="0" y="367.5" width="976" height="24.65"/>
            </clipPath>
<clipPath id="terminal-636844371-line-16">
    <rect x="0" y="391.9" width="976" height="24.65"/>
            </clipPath>
<clipPath id="terminal-636844371-line-17">
    <rect x="0" y="416.3" width="976" height="24.65"/>
            </clipPath>
<clipPath id="terminal-636844371-line-18">
    <rect x="0" y="440.7" width="976" height="24.65"/>
            </clipPath>
<clipPath id="terminal-636844371-line-19">
    <rect x="0" y="465.1" width="976" height="24.65"/>
            </clipPath>
<clipPath id="terminal-636844371-line-20">
    <rect x="0" y="489.5" width="976" height="24.65"/>
            </clipPath>
<clipPath id="terminal-636844371-line-21">
    <rect x="0" y="513.9" width="976" height="24.65"/>
            </clipPath>
<clipPath id="terminal-636844371-line-22">
    <rect x="0" y="538.3" width="976" height="24.65"/>
            </clipPath>
<clipPath id="terminal-636844371-line-23">
    <rect x="0" y="562.7" width="976" height="24.65"/>
            </clipPath>
<clipPath id="terminal-636844371-line-24">
    <rect x="0" y="587.1" width="976" height="24.65"/>
            </clipPath>
<clipPath id="terminal-636844371-line-25">
    <rect x="0" y="611.5" width="976" height="24.65"/>
            </clipPath>
<clipPath id="terminal-636844371-line-26">
    <rect x="0" y="635.9" width="976" height="24.65"/>
            </clipPath>
<clipPath id="terminal-636844371-line-27">
    <rect x="0" y="660.3" width="976" height="24.65"/>
            </clipPath>
<clipPath id="terminal-636844371-line-28">
    <rect x="0" y="684.7" width="976" height="24.65"/>
            </clipPath>
<clipPath id="terminal-636844371-line-29">
    <rect x="0" y="709.1" width="976" height="24.65"/>
            </clipPath>
<clipPath id="terminal-636844371-line-30">
    <rect x="0" y="733.5" width="976" height="24.65"/>
            </clipPath>
<clipPath id="terminal-636844371-line-31">
    <rect x="0" y="757.9" width="976" height="24.65"/>
            </clipPath>
<clipPath id="terminal-636844371-line-32">
    <rect x="0" y="782.3" width="976" height="24.65"/>
            </clipPath>
<clipPath id="terminal-636844371-line-33">
    <rect x="0" y="806.7" width="976" height="24.65"/>
            </clipPath>
<clipPath id="terminal-636844371-line-34">
    <rect x="0" y="831.1" width="976" height="24.65"/>
            </clipPath>
<clipPath id="terminal-636844371-line-35">
    <rect x="0" y="855.5" width="976" height="24.65"/>
            </clipPath>
<clipPath id="terminal-636844371-line-36">
    <rect x="0" y="879.9" width="976" height="24.65"/>
            </clipPath>
<clipPath id="terminal-636844371-line-37">
    <rect x="0" y="904.3" width="976" height="24.65"/>
            </clipPath>
<clipPath id="terminal-636844371-line-38">
    <rect x="0" y="928.7" width="976" height="24.65"/>
            </clipPath>
    </defs>

    <rect fill="#292929" stroke="rgba(255,255,255,0.35)" stroke-width="1" x="1" y="1" width="992" height="1024" rx="8"/><text class="terminal-636844371-title" fill="#c5c8c6" text-anchor="middle" x="496" y="27">TestWrestleGMApp</text>
            <g transform="translate(26,22)">
            <circle cx="0" cy="0" r="7" fill="#ff5f57"/>
            <circle cx="22" cy="0" r="7" fill="#febc2e"/>
            <circle cx="44" cy="0" r="7" fill="#28c840"/>
            </g>
        
    <g transform="translate(9, 41)" clip-path="url(#terminal-636844371-clip-terminal)">
    <rect fill="#1c1c1c" x="0" y="1.5" width="268.4" height="24.65" shape-rendering="crispEdges"/><rect fill="#1c1c1c" x="268.4" y="1.5" width="439.2" height="24.65" shape-rendering="crispEdges"/><rect fill="#1c1c1c" x="707.6" y="1.5" width="268.4" height="24.65" shape-rendering="crispEdges"/><rect fill="#121212" x="0" y="25.9" width="976" height="24.65" shape-rendering="crispEdges"/><rect fill="#121212" x="0" y="50.3" width="976" height="24.65" shape-rendering="crispEdges"/><rect fill="#121212" x="0" y="74.7" width="976" height="24.65" shape-rendering="crispEdges"/><rect fill="#121212" x="0" y="99.1" width="976" height="24.65" shape-rendering="crispEdges"/><rect fill="#121212" x="0" y="123.5" width="976" height="24.65" shape-rendering="crispEdges"/><rect fill="#121212" x="0" y="147.9" width="976" height="24.65" shape-rendering="crispEdges"/><rect fill="#121212" x="0" y="172.3" width="976" height="24.65" shape-rendering="crispEdges"/><rect fill="#121212" x="0" y="196.7" width="976" height="24.65" shape-rendering="crispEdges"/><rect fill="#121212" x="0" y="221.1" width="976" height="24.65" shape-rendering="crispEdges"/><rect fill="#121212" x="0" y="245.5" width="976" height="24.65" shape-rendering="crispEdges"/><rect fill="#121212" x="0" y="269.9" width="976" height="24.65" shape-rendering="crispEdges"/><rect fill="#121212" x="0" y="294.3" width="976" height="24.65" shape-rendering="crispEdges"/><rect fill="#121212" x="0" y="318.7" width="976" height="24.65" shape-rendering="crispEdges"/><rect fill="#121212" x="0" y="343.1" width="61" height="24.65" shape-rendering="crispEdges"/><rect fill="#1a1a1a" x="61" y="343.1" width="183" height="24.65" shape-rendering="crispEdges"/><rect fill="#121212" x="244" y="343.1" width="488" height="24.65" shape-rendering="crispEdges"/><rect fill="#1a1a1a" x="732" y="343.1" width="183" height="24.65" shape-rendering="crispEdges"/><rect fill="#121212" x="915" y="343.1" width="61" height="24.65" shape-rendering="crispEdges"/><rect fill="#121212" x="0" y="367.5" width="61" height="24.65" shape-rendering="crispEdges"/><rect fill="#1a1a1a" x="61" y="367.5" width="183" height="24.65" shape-rendering="crispEdges"/><rect fill="#121212" x="244" y="367.5" width="12.2" height="24.65" shape-rendering="crispEdges"/><rect fill="#121212" x="256.2" y="367.5" width="463.6" height="24.65" shape-rendering="crispEdges"/><rect fill="#121212" x="719.8" y="367.5" width="12.2" height="24.65" shape-rendering="crispEdges"/><rect fill="#1a1a1a" x="732" y="367.5" width="183" height="24.65" shape-rendering="crispEdges"/><rect fill="#121212" x="915" y="367.5" width="61" height="24.65" shape-rendering="crispEdges"/><rect fill="#121212" x="0" y="391.9" width="61" height="24.65" shape-rendering="crispEdges"/><rect fill="#1a1a1a" x="61" y="391.9" width="183" height="24.65" shape-rendering="crispEdges"/><rect fill="#121212" x="244" y="391.9" width="12.2" height="24.65" shape-rendering="crispEdges"/><rect fill="#121212" x="256.2" y="391.9" width="24.4" height="24.65" shape-rendering="crispEdges"/><rect fill="#121212" x="280.6" y="391.9" width="207.4" height="24.65" shape-rendering="crispEdges"/><rect fill="#121212" x="488" y="391.9" width="231.8" height="24.65" shape-rendering="crispEdges"/><rect fill="#121212" x="719.8" y="391.9" width="12.2" height="24.65" shape-rendering="crispEdges"/><rect fill="#1a1a1a" x="732" y="391.9" width="183" height="24.65" shape-rendering="crispEdges"/><rect fill="#121212" x="915" y="391.9" width="61" height="24.65" shape-rendering="crispEdges"/><rect fill="#121212" x="0" y="416.3" width="244" height="24.65" shape-rendering="crispEdges"/><rect fill="#121212" x="244" y="416.3" width="12.2" height="24.65" shape-rendering="crispEdges"/><rect fill="#121212" x="256.2" y="416.3" width="24.4" height="24.65" shape-rendering="crispEdges"/><rect fill="#121212" x="280.6" y="416.3" width="366" height="24.65" shape-rendering="crispEdges"/><rect fill="#121212" x="646.6" y="416.3" width="73.2" height="24.65" shape-rendering="crispEdges"/><rect fill="#121212" x="719.8" y="416.3" width="12.2" height="24.65" shape-rendering="crispEdges"/><rect fill="#121212" x="732" y="416.3" width="244" height="24.65" shape-rendering="crispEdges"/><rect fill="#121212" x="0" y="440.7" width="61" height="24.65" shape-rendering="crispEdges"/><rect fill="#161616" x="61" y="440.7" width="183" height="24.65" shape-rendering="crispEdges"/><rect fill="#121212" x="244" y="440.7" width="12.2" height="24.65" shape-rendering="crispEdges"/><rect fill="#121212" x="256.2" y="440.7" width="24.4" height="24.65" shape-rendering="crispEdges"/><rect fill="#272727" x="280.6" y="440.7" width="219.6" height="24.65" shape-rendering="crispEdges"/><rect fill="#121212" x="500.2" y="440.7" width="219.6" height="24.65" shape-rendering="crispEdges"/><rect fill="#121212" x="719.8" y="440.7" width="12.2" height="24.65" shape-rendering="crispEdges"/><rect fill="#161616" x="732" y="440.7" width="183" height="24.65" shape-rendering="crispEdges"/><rect fill="#121212" x="915" y="440.7" width="61" height="24.65" shape-rendering="crispEdges"/><rect fill="#121212" x="0" y="465.1" width="61" height="24.65" shape-rendering="crispEdges"/><rect fill="#161616" x="61" y="465.1" width="183" height="24.65" shape-rendering="crispEdges"/><rect fill="#121212" x="244" y="465.1" width="12.2" height="24.65" shape-rendering="crispEdges"/><rect fill="#121212" x="256.2" y="465.1" width="24.4" height="24.65" shape-rendering="crispEdges"/><rect fill="#272727" x="280.6" y="465.1" width="48.8" height="24.65" shape-rendering="crispEdges"/><rect fill="#e0e0e0" x="329.4" y="465.1" width="109.8" height="24.65" shape-rendering="crispEdges"/><rect fill="#272727" x="439.2" y="465.1" width="61" height="24.65" shape-rendering="crispEdges"/><rect fill="#121212" x="500.2" y="465.1" width="219.6" height="24.65" shape-rendering="crispEdges"/><rect fill="#121212" x="719.8" y="465.1" width="12.2" height="24.65" shape-rendering="crispEdges"/><rect fill="#161616" x="732" y="465.1" width="183" height="24.65" shape-rendering="crispEdges"/><rect fill="#121212" x="915" y="465.1" width="61" height="24.65" shape-rendering="crispEdges"/><rect fill="#121212" x="0" y="489.5" width="61" height="24.65" shape-rendering="crispEdges"/><rect fill="#161616" x="61" y="489.5" width="183" height="24.65" shape-rendering="crispEdges"/><rect fill="#121212" x="244" y="489.5" width="12.2" height="24.65" shape-rendering="crispEdges"/><rect fill="#121212" x="256.2" y="489.5" width="24.4" height="24.65" shape-rendering="crispEdges"/><rect fill="#272727" x="280.6" y="489.5" width="219.6" height="24.65" shape-rendering="crispEdges"/><rect fill="#121212" x="500.2" y="489.5" width="219.6" height="24.65" shape-rendering="crispEdges"/><rect fill="#121212" x="719.8" y="489.5" width="12.2" height="24.65" shape-rendering="crispEdges"/><rect fill="#161616" x="732" y="489.5" width="183" height="24.65" shape-rendering="crispEdges"/><rect fill="#121212" x="915" y="489.5" width="61" height="24.65" shape-rendering="crispEdges"/><rect fill="#121212" x="0" y="513.9" width="244" height="24.65" shape-rendering="crispEdges"/><rect fill="#121212" x="244" y="513.9" width="12.2" height="24.65" shape-rendering="crispEdges"/><rect fill="#121212" x="256.2" y="513.9" width="24.4" height="24.65" shape-rendering="crispEdges"/><rect fill="#1e1e1e" x="280.6" y="513.9" width="219.6" height="24.65" shape-rendering="crispEdges"/><rect fill="#121212" x="500.2" y="513.9" width="219.6" height="24.65" shape-rendering="crispEdges"/><rect fill="#121212" x="719.8" y="513.9" width="12.2" height="24.65" shape-rendering="crispEdges"/><rect fill="#121212" x="732" y="513.9" width="244" height="24.65" shape-rendering="crispEdges"/><rect fill="#121212" x="0" y="538.3" width="61" height="24.65" shape-rendering="crispEdges"/><rect fill="#161616" x="61" y="538.3" width="183" height="24.65" shape-rendering="crispEdges"/><rect fill="#121212" x="244" y="538.3" width="12.2" height="24.65" shape-rendering="crispEdges"/><rect fill="#121212" x="256.2" y="538.3" width="24.4" height="24.65" shape-rendering="crispEdges"/><rect fill="#1e1e1e" x="280.6" y="538.3" width="61" height="24.65" shape-rendering="crispEdges"/><rect fill="#1e1e1e" x="341.6" y="538.3" width="97.6" height="24.65" shape-rendering="crispEdges"/><rect fill="#1e1e1e" x="439.2" y="538.3" width="61" height="24.65" shape-rendering="crispEdges"/><rect fill="#121212" x="500.2" y="538.3" width="219.6" height="24.65" shape-rendering="crispEdges"/><rect fill="#121212" x="719.8" y="538.3" width="12.2" height="24.65" shape-rendering="crispEdges"/><rect fill="#161616" x="732" y="538.3" width="183" height="24.65" shape-rendering="crispEdges"/><rect fill="#121212" x="915" y="538.3" width="61" height="24.65" shape-rendering="crispEdges"/><rect fill="#121212" x="0" y="562.7" width="61" height="24.65" shape-rendering="crispEdges"/><rect fill="#161616" x="61" y="562.7" width="183" height="24.65" shape-rendering="crispEdges"/><rect fill="#121212" x="244" y="562.7" width="12.2" height="24.65" shape-rendering="crispEdges"/><rect fill="#121212" x="256.2" y="562.7" width="24.4" height="24.65" shape-rendering="crispEdges"/><rect fill="#1e1e1e" x="280.6" y="562.7" width="219.6" height="24.65" shape-rendering="crispEdges"/><rect fill="#121212" x="500.2" y="562.7" width="219.6" height="24.65" shape-rendering="crispEdges"/><rect fill="#121212" x="719.8" y="562.7" width="12.2" height="24.65" shape-rendering="crispEdges"/><rect fill="#161616" x="732" y="562.7" width="183" height="24.65" shape-rendering="crispEdges"/><rect fill="#121212" x="915" y="562.7" width="61" height="24.65" shape-rendering="crispEdges"/><rect fill="#121212" x="0" y="587.1" width="61" height="24.65" shape-rendering="crispEdges"/><rect fill="#161616" x="61" y="587.1" width="183" height="24.65" shape-rendering="crispEdges"/><rect fill="#121212" x="244" y="587.1" width="12.2" height="24.65" shape-rendering="crispEdges"/><rect fill="#121212" x="256.2" y="587.1" width="463.6" height="24.65" shape-rendering="crispEdges"/><rect fill="#121212" x="719.8" y="587.1" width="12.2" height="24.65" shape-rendering="crispEdges"/><rect fill="#161616" x="732" y="587.1" width="183" height="24.65" shape-rendering="crispEdges"/><rect fill="#121212" x="915" y="587.1" width="61" height="24.65" shape-rendering="crispEdges"/><rect fill="#121212" x="0" y="611.5" width="244" height="24.65" shape-rendering="crispEdges"/><rect fill="#121212" x="244" y="611.5" width="488" height="24.65" shape-rendering="crispEdges"/><rect fill="#121212" x="732" y="611.5" width="244" height="24.65" shape-rendering="crispEdges"/><rect fill="#121212" x="0" y="635.9" width="976" height="24.65" shape-rendering="crispEdges"/><rect fill="#121212" x="0" y="660.3" width="976" height="24.65" shape-rendering="crispEdges"/><rect fill="#121212" x="0" y="684.7" width="976" height="24.65" shape-rendering="crispEdges"/><rect fill="#121212" x="0" y="709.1" width="976" height="24.65" shape-rendering="crispEdges"/><rect fill="#121212" x="0" y="733.5" width="976" height="24.65" shape-rendering="crispEdges"/><rect fill="#121212" x="0" y="757.9" width="976" height="24.65" shape-rendering="crispEdges"/><rect fill="#121212" x="0" y="782.3" width="976" height="24.65" shape-rendering="crispEdges"/><rect fill="#121212" x="0" y="806.7" width="976" height="24.65" shape-rendering="crispEdges"/><rect fill="#121212" x="0" y="831.1" width="976" height="24.65" shape-rendering="crispEdges"/><rect fill="#121212" x="0" y="855.5" width="976" height="24.65" shape-rendering="crispEdges"/><rect fill="#121212" x="0" y="879.9" width="976" height="24.65" shape-rendering="crispEdges"/><rect fill="#121212" x="0" y="904.3" width="976" height="24.65" shape-rendering="crispEdges"/><rect fill="#121212" x="0" y="928.7" width="976" height="24.65" shape-rendering="crispEdges"/><rect fill="#1c1c1c" x="0" y="953.1" width="36.6" height="24.65" shape-rendering="crispEdges"/><rect fill="#1c1c1c" x="36.6" y="953.1" width="61" height="24.65" shape-rendering="crispEdges"/><rect fill="#1c1c1c" x="97.6" y="953.1" width="36.6" height="24.65" shape-rendering="crispEdges"/><rect fill="#1c1c1c" x="134.2" y="953.1" width="61" height="24.65" shape-rendering="crispEdges"/><rect fill="#1c1c1c" x="195.2" y="953.1" width="61" height="24.65" shape-rendering="crispEdges"/><rect fill="#1c1c1c" x="256.2" y="953.1" width="61" height="24.65" shape-rendering="crispEdges"/><rect fill="#1c1c1c" x="317.2" y="953.1" width="512.4" height="24.65" shape-rendering="crispEdges"/><rect fill="#1c1c1c" x="829.6" y="953.1" width="12.2" height="24.65" shape-rendering="crispEdges"/><rect fill="#1c1c1c" x="841.8" y="953.1" width="24.4" height="24.65" shape-rendering="crispEdges"/><rect fill="#1c1c1c" x="866.2" y="953.1" width="97.6" height="24.65" shape-rendering="crispEdges"/><rect fill="#1c1c1c" x="963.8" y="953.1" width="12.2" height="24.65" shape-rendering="crispEdges"/>
    <g class="terminal-636844371-matrix">
    <text class="terminal-636844371-r2" x="268.4" y="20" textLength="439.2" clip-path="url(#terminal-636844371-line-0)">&#160;&#160;&#160;&#160;&#160;&#160;&#160;&#160;&#160;&#160;&#160;&#160;&#160;&#160;New&#160;Game&#160;&#160;&#160;&#160;&#160;&#160;&#160;&#160;&#160;&#160;&#160;&#160;&#160;&#160;</text><text class="terminal-636844371-r3" x="976" y="20" textLength="12.2" clip-path="url(#terminal-636844371-line-0)">
</text><text class="terminal-636844371-r3" x="976" y="44.4" textLength="12.2" clip-path="url(#terminal-636844371-line-1)">
</text><text class="terminal-636844371-r3" x="976" y="68.8" textLength="12.2" clip-path="url(#terminal-636844371-line-2)">
</text><text class="terminal-636844371-r3" x="976" y="93.2" textLength="12.2" clip-path="url(#terminal-636844371-line-3)">
</text><text class="terminal-636844371-r3" x="976" y="117.6" textLength="12.2" clip-path="url(#terminal-636844371-line-4)">
</text><text class="terminal-636844371-r3" x="976" y="142" textLength="12.2" clip-path="url(#terminal-636844371-line-5)">
</text><text class="terminal-636844371-r3" x="976" y="166.4" textLength="12.2" clip-path="url(#terminal-636844371-line-6)">
</text><text class="terminal-636844371-r3" x="976" y="190.8" textLength="12.2" clip-path="url(#terminal-636844371-line-7)">
</text><text class="terminal-636844371-r3" x="976" y="215.2" textLength="12.2" clip-path="url(#terminal-636844371-line-8)">
</text><text class="terminal-636844371-r3" x="976" y="239.6" textLength="12.2" clip-path="url(#terminal-636844371-line-9)">
</text><text class="terminal-636844371-r3" x="976" y="264" textLength="12.2" clip-path="url(#terminal-636844371-line-10)">
</text><text class="terminal-636844371-r3" x="976" y="288.4" textLength="12.2" clip-path="url(#terminal-636844371-line-11)">
</text><text class="terminal-636844371-r3" x="976" y="312.8" textLength="12.2" clip-path="url(#terminal-636844371-line-12)">
</text><text class="terminal-636844371-r3" x="976" y="337.2" textLength="12.2" clip-path="url(#terminal-636844371-line-13)">
</text><text class="terminal-636844371-r5" x="61" y="361.6" textLength="183" clip-path="url(#terminal-636844371-line-14)">▔▔▔▔▔▔▔▔▔▔▔▔▔▔▔</text><text class="terminal-636844371-r6" x="244" y="361.6" textLength="488" clip-path="url(#terminal-636844371-line-14)">┌──────────────────────────────────────┐</text><text class="terminal-636844371-r5" x="732" y="361.6" textLength="183" clip-path="url(#terminal-636844371-line-14)">▔▔▔▔▔▔▔▔▔▔▔▔▔▔▔</text><text class="terminal-636844371-r3" x="976" y="361.6" textLength="12.2" clip-path="url(#terminal-636844371-line-14)">
</text><text class="terminal-636844371-r6" x="244" y="386" textLength="12.2" clip-path="url(#terminal-636844371-line-15)">│</text><text class="terminal-636844371-r6" x="719.8" y="386" textLength="12.2" clip-path="url(#terminal-636844371-line-15)">│</text><text class="terminal-636844371-r3" x="976" y="386" textLength="12.2" clip-path="url(#terminal-636844371-line-15)">
</text><text class="terminal-636844371-r7" x="61" y="410.4" textLength="183" clip-path="url(#terminal-636844371-line-16)">▁▁▁▁▁▁▁▁▁▁▁▁▁▁▁</text><text class="terminal-636844371-r6" x="244" y="410.4" textLength="12.2" clip-path="url(#terminal-636844371-line-16)">│</text><text class="terminal-636844371-r4" x="280.6" y="410.4" textLength="207.4" clip-path="url(#terminal-636844371-line-16)">Overwrite&#160;Slot&#160;1?</text><text class="terminal-636844371-r6" x="719.8" y="410.4" textLength="12.2" clip-path="url(#terminal-636844371-line-16)">│</text><text class="terminal-636844371-r7" x="732" y="410.4" textLength="183" clip-path="url(#terminal-636844371-line-16)">▁▁▁▁▁▁▁▁▁▁▁▁▁▁▁</text><text class="terminal-636844371-r3" x="976" y="410.4" textLength="12.2" clip-path="url(#terminal-636844371-line-16)">
</text><text class="terminal-636844371-r6" x="244" y="434.8" textLength="12.2" clip-path="url(#terminal-636844371-line-17)">│</text><text class="terminal-636844371-r4" x="280.6" y="434.8" textLength="366" clip-path="url(#terminal-636844371-line-17)">This&#160;will&#160;replace&#160;&quot;Indie&#160;Run&quot;.</text><text class="terminal-636844371-r6" x="719.8" y="434.8" textLength="12.2" clip-path="url(#terminal-636844371-line-17)">│</text><text class="terminal-636844371-r3" x="976" y="434.8" textLength="12.2" clip-path="url(#terminal-636844371-line-17)">
</text><text class="terminal-636844371-r5" x="61" y="459.2" textLength="183" clip-path="url(#terminal-636844371-line-18)">▔▔▔▔▔▔▔▔▔▔▔▔▔▔▔</text><text class="terminal-636844371-r6" x="244" y="459.2" textLength="12.2" clip-path="url(#terminal-636844371-line-18)">│</text><text class="terminal-636844371-r8" x="280.6" y="459.2" textLength="219.6" clip-path="url(#terminal-636844371-line-18)">▔▔▔▔▔▔▔▔▔▔▔▔▔▔▔▔▔▔</text><text class="terminal-636844371-r6" x="719.8" y="459.2" textLength="12.2" clip-path="url(#terminal-636844371-line-18)">│</text><text class="terminal-636844371-r5" x="732" y="459.2" textLength="183" clip-path="url(#terminal-636844371-line-18)">▔▔▔▔▔▔▔▔▔▔▔▔▔▔▔</text><text class="terminal-636844371-r3" x="976" y="459.2" textLength="12.2" clip-path="url(#terminal-636844371-line-18)">
</text><text class="terminal-636844371-r6" x="244" y="483.6" textLength="12.2" clip-path="url(#terminal-636844371-line-19)">│</text><text class="terminal-636844371-r9" x="329.4" y="483.6" textLength="109.8" clip-path="url(#terminal-636844371-line-19)">&#160;Confirm&#160;</text><text class="terminal-636844371-r6" x="719.8" y="483.6" textLength="12.2" clip-path="url(#terminal-636844371-line-19)">│</text><text class="terminal-636844371-r3" x="976" y="483.6" textLength="12.2" clip-path="url(#terminal-636844371-line-19)">
</text><text class="terminal-636844371-r7" x="61" y="508" textLength="183" clip-path="url(#terminal-636844371-line-20)">▁▁▁▁▁▁▁▁▁▁▁▁▁▁▁</text><text class="terminal-636844371-r6" x="244" y="508" textLength="12.2" clip-path="url(#terminal-636844371-line-20)">│</text><text class="terminal-636844371-r10" x="280.6" y="508" textLength="219.6" clip-path="url(#terminal-636844371-line-20)">▁▁▁▁▁▁▁▁▁▁▁▁▁▁▁▁▁▁</text><text class="terminal-636844371-r6" x="719.8" y="508" textLength="12.2" clip-path="url(#terminal-636844371-line-20)">│</text><text class="terminal-636844371-r7" x="732" y="508" textLength="183" clip-path="url(#terminal-636844371-line-20)">▁▁▁▁▁▁▁▁▁▁▁▁▁▁▁</text><text class="terminal-636844371-r3" x="976" y="508" textLength="12.2" clip-path="url(#terminal-636844371-line-20)">
</text><text class="terminal-636844371-r6" x="244" y="532.4" textLength="12.2" clip-path="url(#terminal-636844371-line-21)">│</text><text class="terminal-636844371-r8" x="280.6" y="532.4" textLength="219.6" clip-path="url(#terminal-636844371-line-21)">▔▔▔▔▔▔▔▔▔▔▔▔▔▔▔▔▔▔</text><text class="terminal-636844371-r6" x="719.8" y="532.4" textLength="12.2" clip-path="url(#terminal-636844371-line-21)">│</text><text class="terminal-636844371-r3" x="976" y="532.4" textLength="12.2" clip-path="url(#terminal-636844371-line-21)">
</text><text class="terminal-636844371-r5" x="61" y="556.8" textLength="183" clip-path="url(#terminal-636844371-line-22)">▔▔▔▔▔▔▔▔▔▔▔▔▔▔▔</text><text class="terminal-636844371-r6" x="244" y="556.8" textLength="12.2" clip-path="url(#terminal-636844371-line-22)">│</text><text class="terminal-636844371-r11" x="341.6" y="556.8" textLength="97.6" clip-path="url(#terminal-636844371-line-22)">&#160;Cancel&#160;</text><text class="terminal-636844371-r6" x="719.8" y="556.8" textLength="12.2" clip-path="url(#terminal-636844371-line-22)">│</text><text class="terminal-636844371-r5" x="732" y="556.8" textLength="183" clip-path="url(#terminal-636844371-line-22)">▔▔▔▔▔▔▔▔▔▔▔▔▔▔▔</text><text class="terminal-636844371-r3" x="976" y="556.8" textLength="12.2" clip-path="url(#terminal-636844371-line-22)">
</text><text class="terminal-636844371-r6" x="244" y="581.2" textLength="12.2" clip-path="url(#terminal-636844371-line-23)">│</text><text class="terminal-636844371-r10" x="280.6" y="581.2" textLength="219.6" clip-path="url(#terminal-636844371-line-23)">▁▁▁▁▁▁▁▁▁▁▁▁▁▁▁▁▁▁</text><text class="terminal-636844371-r6" x="719.8" y="581.2" textLength="12.2" clip-path="url(#terminal-636844371-line-23)">│</text><text class="terminal-636844371-r3" x="976" y="581.2" textLength="12.2" clip-path="url(#terminal-636844371-line-23)">
</text><text class="terminal-636844371-r7" x="61" y="605.6" textLength="183" clip-path="url(#terminal-636844371-line-24)">▁▁▁▁▁▁▁▁▁▁▁▁▁▁▁</text><text class="terminal-636844371-r6" x="244" y="605.6" textLength="12.2" clip-path="url(#terminal-636844371-line-24)">│</text><text class="terminal-636844371-r6" x="719.8" y="605.6" textLength="12.2" clip-path="url(#terminal-636844371-line-24)">│</text><text class="terminal-636844371-r7" x="732" y="605.6" textLength="183" clip-path="url(#terminal-636844371-line-24)">▁▁▁▁▁▁▁▁▁▁▁▁▁▁▁</text><text class="terminal-636844371-r3" x="976" y="605.6" textLength="12.2" clip-path="url(#terminal-636844371-line-24)">
</text><text class="terminal-636844371-r6" x="244" y="630" textLength="488" clip-path="url(#terminal-636844371-line-25)">└──────────────────────────────────────┘</text><text class="terminal-636844371-r3" x="976" y="630" textLength="12.2" clip-path="url(#terminal-636844371-line-25)">
</text><text class="terminal-636844371-r3" x="976" y="654.4" textLength="12.2" clip-path="url(#terminal-636844371-line-26)">
</text><text class="terminal-636844371-r3" x="976" y="678.8" textLength="12.2" clip-path="url(#terminal-636844371-line-27)">
</text><text class="terminal-636844371-r3" x="976" y="703.2" textLength="12.2" clip-path="url(#terminal-636844371-line-28)">
</text><text class="terminal-636844371-r3" x="976" y="727.6" textLength="12.2" clip-path="url(#terminal-636844371-line-29)">
</text><text class="terminal-636844371-r3" x="976" y="752" textLength="12.2" clip-path="url(#terminal-636844371-line-30)">
</text><text class="terminal-636844371-r3" x="976" y="776.4" textLength="12.2" clip-path="url(#terminal-636844371-line-31)">
</text><text class="terminal-636844371-r3" x="976" y="800.8" textLength="12.2" clip-path="url(#terminal-636844371-line-32)">
</text><text class="terminal-636844371-r3" x="976" y="825.2" textLength="12.2" clip-path="url(#terminal-636844371-line-33)">
</text><text class="terminal-636844371-r3" x="976" y="849.6" textLength="12.2" clip-path="url(#terminal-636844371-line-34)">
</text><text class="terminal-636844371-r3" x="976" y="874" textLength="12.2" clip-path="url(#terminal-636844371-line-35)">
</text><text class="terminal-636844371-r3" x="976" y="898.4" textLength="12.2" clip-path="url(#terminal-636844371-line-36)">
</text><text class="terminal-636844371-r3" x="976" y="922.8" textLength="12.2" clip-path="url(#terminal-636844371-line-37)">
</text><text class="terminal-636844371-r3" x="976" y="947.2" textLength="12.2" clip-path="url(#terminal-636844371-line-38)">
</text><text class="terminal-636844371-r12" x="0" y="971.6" textLength="36.6" clip-path="url(#terminal-636844371-line-39)">&#160;↑&#160;</text><text class="terminal-636844371-r13" x="36.6" y="971.6" textLength="61" clip-path="url(#terminal-636844371-line-39)">Prev&#160;</text><text class="terminal-636844371-r12" x="97.6" y="971.6" textLength="36.6" clip-path="url(#terminal-636844371-line-39)">&#160;↓&#160;</text><text class="terminal-636844371-r13" x="134.2" y="971.6" textLength="61" clip-path="url(#terminal-636844371-line-39)">Next&#160;</text><text class="terminal-636844371-r12" x="195.2" y="971.6" textLength="61" clip-path="url(#terminal-636844371-line-39)">&#160;esc&#160;</text><text class="terminal-636844371-r13" x="256.2" y="971.6" textLength="61" clip-path="url(#terminal-636844371-line-39)">Back&#160;</text><text class="terminal-636844371-r14" x="829.6" y="971.6" textLength="12.2" clip-path="url(#terminal-636844371-line-39)">▏</text><text class="terminal-636844371-r12" x="841.8" y="971.6" textLength="24.4" clip-path="url(#terminal-636844371-line-39)">^p</text><text class="terminal-636844371-r13" x="866.2" y="971.6" textLength="97.6" clip-path="url(#terminal-636844371-line-39)">&#160;palette</text>
    </g>
    </g>
</svg>
